<?xml version="1.0" encoding="UTF-8"?>
<svg width="22px" height="20px" viewBox="0 0 22 20" version="1.1" xmlns="http://www.w3.org/2000/svg" xmlns:xlink="http://www.w3.org/1999/xlink">
    <!-- Generator: Sketch 47.1 (45422) - http://www.bohemiancoding.com/sketch -->
    <title>Stroke 276</title>
    <desc>Created with Sketch.</desc>
    <defs></defs>
    <g id="Symbols" stroke="none" stroke-width="1" fill="none" fill-rule="evenodd">
        <g id="app-header" transform="translate(-23.000000, -24.000000)" stroke="#FFFFFF">
            <g id="Stroke-276">
                <path d="M23.5,29.288 L27.5,29.288 L27.5,25.288 L23.5,25.288 L23.5,29.288 Z M29.5,36.288 L27.5,36.288 C26.948,36.288 26.5,35.84 26.5,35.288 L26.5,33.288 C26.5,32.735 26.948,32.288 27.5,32.288 L29.5,32.288 C30.053,32.288 30.5,32.735 30.5,33.288 L30.5,35.288 C30.5,35.84 30.053,36.288 29.5,36.288 Z M29.5,43.288 L27.5,43.288 C26.948,43.288 26.5,42.84 26.5,42.288 L26.5,40.288 C26.5,39.735 26.948,39.288 27.5,39.288 L29.5,39.288 C30.053,39.288 30.5,39.735 30.5,40.288 L30.5,42.288 C30.5,42.84 30.053,43.288 29.5,43.288 Z M29,27.288 L42,27.288 M32,34.288 L45,34.288 M32,41.288 L45,41.288"></path>
            </g>
        </g>
    </g>
</svg>