<?xml version="1.0" encoding="UTF-8"?>
<svg width="12px" height="8px" viewBox="0 0 12 8" version="1.1" xmlns="http://www.w3.org/2000/svg" xmlns:xlink="http://www.w3.org/1999/xlink">
    <!-- Generator: Sketch 47.1 (45422) - http://www.bohemiancoding.com/sketch -->
    <title></title>
    <desc>Created with Sketch.</desc>
    <defs></defs>
    <g id="dashboard-/-data-table" stroke="none" stroke-width="1" fill="none" fill-rule="evenodd">
        <g id="dashboard-(zoom-01)" transform="translate(-349.000000, -211.000000)" fill="#FFFFFF">
            <g id="widget" transform="translate(0.000000, 170.000000)">
                <g id="select" transform="translate(229.000000, 28.000000)">
                    <path d="M131.270089,15.625 L126.301339,20.5870536 C126.216517,20.6718754 126.116072,20.7142857 126,20.7142857 C125.883928,20.7142857 125.783483,20.6718754 125.698661,20.5870536 L120.729911,15.625 C120.645089,15.5401781 120.602679,15.4386167 120.602679,15.3203125 C120.602679,15.2020083 120.645089,15.1004469 120.729911,15.015625 L121.841518,13.9107143 C121.92634,13.8258924 122.026785,13.7834821 122.142857,13.7834821 C122.258929,13.7834821 122.359375,13.8258924 122.444196,13.9107143 L126,17.4665179 L129.555804,13.9107143 C129.640625,13.8258924 129.741071,13.7834821 129.857143,13.7834821 C129.973215,13.7834821 130.07366,13.8258924 130.158482,13.9107143 L131.270089,15.015625 C131.354911,15.1004469 131.397321,15.2020083 131.397321,15.3203125 C131.397321,15.4386167 131.354911,15.5401781 131.270089,15.625 Z" id=""></path>
                </g>
            </g>
        </g>
    </g>
</svg>