<?xml version="1.0" encoding="UTF-8"?>
<svg width="16px" height="17px" viewBox="0 0 16 17" version="1.1" xmlns="http://www.w3.org/2000/svg" xmlns:xlink="http://www.w3.org/1999/xlink">
    <!-- Generator: Sketch 47.1 (45422) - http://www.bohemiancoding.com/sketch -->
    <title>expand</title>
    <desc>Created with Sketch.</desc>
    <defs></defs>
    <g id="dashboard-/-data-table" stroke="none" stroke-width="1" fill="none" fill-rule="evenodd">
        <g id="dashboard-(zoom-01)" transform="translate(-806.000000, -911.000000)" fill="#FFFFFF">
            <g id="widget-(map---production-by-region)" transform="translate(0.000000, 430.000000)">
                <path d="M813.583705,491.178571 C813.583705,491.265625 813.550224,491.342634 813.483259,491.409598 L810.148438,494.74442 L811.594866,496.190848 C811.722099,496.318081 811.785714,496.468749 811.785714,496.642857 C811.785714,496.816965 811.722099,496.967633 811.594866,497.094866 C811.467633,497.222099 811.316965,497.285714 811.142857,497.285714 L806.642857,497.285714 C806.468749,497.285714 806.318081,497.222099 806.190848,497.094866 C806.063615,496.967633 806,496.816965 806,496.642857 L806,492.142857 C806,491.968749 806.063615,491.818081 806.190848,491.690848 C806.318081,491.563615 806.468749,491.5 806.642857,491.5 C806.816965,491.5 806.967633,491.563615 807.094866,491.690848 L808.541295,493.137277 L811.876116,489.802455 C811.943081,489.735491 812.020089,489.702009 812.107143,489.702009 C812.194197,489.702009 812.271205,489.735491 812.33817,489.802455 L813.483259,490.947545 C813.550224,491.014509 813.583705,491.091517 813.583705,491.178571 Z M821.428571,482.5 L821.428571,487 C821.428571,487.174108 821.364956,487.324776 821.237723,487.452009 C821.11049,487.579242 820.959822,487.642857 820.785714,487.642857 C820.611606,487.642857 820.460938,487.579242 820.333705,487.452009 L818.887277,486.00558 L815.552455,489.340402 C815.485491,489.407366 815.408483,489.440848 815.321429,489.440848 C815.234375,489.440848 815.157366,489.407366 815.090402,489.340402 L813.945312,488.195312 C813.878348,488.128348 813.844866,488.05134 813.844866,487.964286 C813.844866,487.877232 813.878348,487.800224 813.945312,487.733259 L817.280134,484.398438 L815.833705,482.952009 C815.706473,482.824776 815.642857,482.674108 815.642857,482.5 C815.642857,482.325892 815.706473,482.175224 815.833705,482.047991 C815.960938,481.920758 816.111606,481.857143 816.285714,481.857143 L820.785714,481.857143 C820.959822,481.857143 821.11049,481.920758 821.237723,482.047991 C821.364956,482.175224 821.428571,482.325892 821.428571,482.5 Z" id="expand"></path>
            </g>
        </g>
    </g>
</svg>