<?xml version="1.0" encoding="UTF-8"?>
<svg width="17px" height="21px" viewBox="0 0 17 21" version="1.1" xmlns="http://www.w3.org/2000/svg" xmlns:xlink="http://www.w3.org/1999/xlink">
    <!-- Generator: Sketch 47.1 (45422) - http://www.bohemiancoding.com/sketch -->
    <title>pin</title>
    <desc>Created with Sketch.</desc>
    <defs>
        <path d="M8.5,21 C14.1666667,15.7962802 17,11.6296136 17,8.5 C17,3.80557963 13.1944204,0 8.5,0 C3.80557963,0 0,3.80557963 0,8.5 C0,11.6296136 2.83333333,15.7962802 8.5,21 Z" id="path-1"></path>
        <circle id="path-2" cx="8.5" cy="8.5" r="4.5"></circle>
    </defs>
    <g id="dashboard-/-data-table" stroke="none" stroke-width="1" fill="none" fill-rule="evenodd">
        <g id="dashboard" transform="translate(-574.000000, -547.000000)">
            <g id="widget-(map---production-by-region)" transform="translate(0.000000, 430.000000)">
                <g id="pins" transform="translate(15.000000, 23.000000)">
                    <g id="green" transform="translate(49.000000, 28.000000)">
                        <g id="pin" transform="translate(510.000000, 66.000000)">
                            <g id="Oval">
                                <use fill="#17D300" fill-rule="evenodd" xlink:href="#path-1"></use>
                                <path stroke="#2EFF00" stroke-width="1" d="M8.5,20.3192461 C13.8442658,15.3503998 16.5,11.3858988 16.5,8.5 C16.5,4.081722 12.918278,0.5 8.5,0.5 C4.081722,0.5 0.5,4.081722 0.5,8.5 C0.5,11.3858988 3.15573417,15.3503998 8.5,20.3192461 Z"></path>
                            </g>
                            <g id="Oval">
                                <use fill="#02AE00" fill-rule="evenodd" xlink:href="#path-2"></use>
                                <circle stroke="#FFFFFF" stroke-width="1" cx="8.5" cy="8.5" r="4"></circle>
                            </g>
                        </g>
                    </g>
                </g>
            </g>
        </g>
    </g>
</svg>