<?xml version="1.0" encoding="UTF-8"?>
<svg width="22px" height="23px" viewBox="0 0 22 23" version="1.1" xmlns="http://www.w3.org/2000/svg" xmlns:xlink="http://www.w3.org/1999/xlink">
    <!-- Generator: Sketch 48 (47235) - http://www.bohemiancoding.com/sketch -->
    <title>Stroke 70</title>
    <desc>Created with Sketch.</desc>
    <defs></defs>
    <g id="app-header" stroke="none" stroke-width="1" fill="none" fill-rule="evenodd" transform="translate(-1116.000000, -24.000000)" stroke-linejoin="round">
        <g id="bhge-logo" stroke="#FFFFFF">
            <g transform="translate(24.000000, 10.000000)">
                <g id="Group-2">
                    <path d="M1113.26667,25.4116933 C1113.26667,31.0818267 1108.67013,35.67836 1103,35.67836 C1097.32987,35.67836 1092.73333,31.0818267 1092.73333,25.4116933 C1092.73333,19.74156 1097.32987,15.1450267 1103,15.1450267 C1108.67013,15.1450267 1113.26667,19.74156 1113.26667,25.4116933 Z M1100.06667,22.47836 C1100.06667,20.85916 1101.3808,19.5450267 1103,19.5450267 C1104.6192,19.5450267 1105.93333,20.85916 1105.93333,22.47836 C1105.93333,23.6296933 1105.2704,24.62556 1104.30533,25.1066267 C1103.5368,25.48796 1103,26.2110267 1103,27.0690267 L1103,27.6116933 M1103.73333,30.5450267 C1103.73333,30.9498267 1103.4048,31.27836 1103,31.27836 C1102.5952,31.27836 1102.26667,30.9498267 1102.26667,30.5450267 C1102.26667,30.1402267 1102.5952,29.8116933 1103,29.8116933 C1103.4048,29.8116933 1103.73333,30.1402267 1103.73333,30.5450267 Z" id="Stroke-70"></path>
                </g>
            </g>
        </g>
    </g>
</svg>