<?xml version="1.0" encoding="UTF-8"?>
<svg width="95px" height="14px" viewBox="0 0 95 14" version="1.1" xmlns="http://www.w3.org/2000/svg" xmlns:xlink="http://www.w3.org/1999/xlink">
    <!-- Generator: Sketch 48.1 (47250) - http://www.bohemiancoding.com/sketch -->
    <title>IntelliStream</title>
    <desc>Created with Sketch.</desc>
    <defs></defs>
    <g id="app-header" stroke="none" stroke-width="1" fill="none" fill-rule="evenodd" transform="translate(-76.000000, -28.000000)" opacity="0.5">
        <g fill="#E1EBF0" id="branding">
            <g transform="translate(75.000000, 10.000000)">
                <path d="M2.61,31 L1.782,31 C1.548,31 1.458,30.91 1.458,30.676 L1.458,19.408 C1.458,19.174 1.548,19.084 1.782,19.084 L2.61,19.084 C2.844,19.084 2.934,19.174 2.934,19.408 L2.934,30.676 C2.934,30.91 2.844,31 2.61,31 Z M6.858,31 L6.102,31 C5.868,31 5.778,30.91 5.778,30.676 L5.778,22.684 C5.778,22.45 5.868,22.36 6.102,22.36 L6.768,22.36 C7.002,22.36 7.092,22.45 7.092,22.684 L7.092,23.404 C7.578,22.792 8.388,22.18 9.756,22.18 C11.898,22.18 12.744,23.692 12.744,25.456 L12.744,30.676 C12.744,30.91 12.654,31 12.42,31 L11.664,31 C11.43,31 11.34,30.91 11.34,30.676 L11.34,25.582 C11.34,24.574 10.998,23.35 9.468,23.35 C8.712,23.35 7.812,23.638 7.182,24.502 L7.182,30.676 C7.182,30.91 7.092,31 6.858,31 Z M15.84,23.458 L14.688,23.458 C14.454,23.458 14.364,23.368 14.364,23.134 L14.364,22.684 C14.364,22.45 14.454,22.36 14.688,22.36 L15.84,22.36 L15.84,20.362 C15.84,20.128 15.93,20.038 16.164,20.038 L16.92,20.038 C17.154,20.038 17.244,20.128 17.244,20.362 L17.244,22.36 L19.692,22.36 C19.926,22.36 20.016,22.45 20.016,22.684 L20.016,23.134 C20.016,23.368 19.926,23.458 19.692,23.458 L17.244,23.458 L17.244,28.534 C17.244,29.488 17.532,30.01 18.378,30.01 C18.774,30.01 19.098,29.902 19.404,29.722 C19.602,29.614 19.71,29.65 19.8,29.848 L19.998,30.316 C20.088,30.532 20.034,30.676 19.854,30.784 C19.35,31.072 18.792,31.18 18.198,31.18 C16.686,31.18 15.84,30.496 15.84,28.588 L15.84,23.458 Z M28.872,26.572 L28.872,26.878 C28.872,27.058 28.782,27.148 28.602,27.148 L22.716,27.148 C22.824,28.732 23.58,29.992 25.416,29.992 C26.154,29.992 26.91,29.794 27.486,29.38 C27.684,29.236 27.792,29.254 27.936,29.452 L28.224,29.884 C28.332,30.064 28.314,30.208 28.134,30.352 C27.414,30.928 26.442,31.18 25.398,31.18 C22.446,31.18 21.276,29.02 21.276,26.698 C21.276,24.304 22.518,22.18 25.128,22.18 C27.882,22.18 28.872,24.538 28.872,26.572 Z M27.486,26.104 C27.36,24.574 26.64,23.296 25.11,23.296 C23.616,23.296 22.86,24.484 22.716,26.104 L27.486,26.104 Z M32.094,31 L31.338,31 C31.104,31 31.014,30.91 31.014,30.676 L31.014,18.4 C31.014,18.166 31.104,18.076 31.338,18.076 L32.094,18.076 C32.328,18.076 32.418,18.166 32.418,18.4 L32.418,30.676 C32.418,30.91 32.328,31 32.094,31 Z M36.27,31 L35.514,31 C35.28,31 35.19,30.91 35.19,30.676 L35.19,18.4 C35.19,18.166 35.28,18.076 35.514,18.076 L36.27,18.076 C36.504,18.076 36.594,18.166 36.594,18.4 L36.594,30.676 C36.594,30.91 36.504,31 36.27,31 Z M40.446,31 L39.69,31 C39.456,31 39.366,30.91 39.366,30.676 L39.366,22.684 C39.366,22.45 39.456,22.36 39.69,22.36 L40.446,22.36 C40.68,22.36 40.77,22.45 40.77,22.684 L40.77,30.676 C40.77,30.91 40.68,31 40.446,31 Z M41.022,19.246 C41.022,19.786 40.662,20.218 40.068,20.218 C39.474,20.218 39.114,19.786 39.114,19.246 C39.114,18.706 39.474,18.274 40.068,18.274 C40.662,18.274 41.022,18.706 41.022,19.246 Z M50.76,27.832 C50.76,29.902 49.158,31.18 46.674,31.18 C45.054,31.18 43.848,30.64 43.128,29.992 C42.966,29.848 42.948,29.704 43.074,29.524 L43.506,28.984 C43.65,28.804 43.776,28.786 43.956,28.93 C44.676,29.524 45.558,29.902 46.692,29.902 C48.312,29.902 49.266,29.146 49.266,27.922 C49.266,26.626 48.168,26.158 46.692,25.708 C45.108,25.222 43.092,24.574 43.092,22.234 C43.092,20.146 44.712,18.904 47.142,18.904 C48.582,18.904 49.662,19.336 50.328,19.858 C50.508,20.002 50.526,20.146 50.4,20.326 L50.022,20.866 C49.878,21.046 49.752,21.064 49.572,20.938 C48.96,20.488 48.168,20.182 47.106,20.182 C45.27,20.182 44.586,21.118 44.586,22.162 C44.586,23.458 45.666,23.944 47.142,24.394 C48.726,24.88 50.76,25.51 50.76,27.832 Z M53.298,23.458 L52.146,23.458 C51.912,23.458 51.822,23.368 51.822,23.134 L51.822,22.684 C51.822,22.45 51.912,22.36 52.146,22.36 L53.298,22.36 L53.298,20.362 C53.298,20.128 53.388,20.038 53.622,20.038 L54.378,20.038 C54.612,20.038 54.702,20.128 54.702,20.362 L54.702,22.36 L57.15,22.36 C57.384,22.36 57.474,22.45 57.474,22.684 L57.474,23.134 C57.474,23.368 57.384,23.458 57.15,23.458 L54.702,23.458 L54.702,28.534 C54.702,29.488 54.99,30.01 55.836,30.01 C56.232,30.01 56.556,29.902 56.862,29.722 C57.06,29.614 57.168,29.65 57.258,29.848 L57.456,30.316 C57.546,30.532 57.492,30.676 57.312,30.784 C56.808,31.072 56.25,31.18 55.656,31.18 C54.144,31.18 53.298,30.496 53.298,28.588 L53.298,23.458 Z M60.408,31 L59.652,31 C59.418,31 59.328,30.91 59.328,30.676 L59.328,22.684 C59.328,22.45 59.418,22.36 59.652,22.36 L60.318,22.36 C60.552,22.36 60.642,22.45 60.642,22.684 L60.642,23.494 C61.128,22.864 61.83,22.18 63.09,22.18 C63.324,22.18 63.594,22.198 63.846,22.27 C64.044,22.324 64.134,22.468 64.08,22.666 L63.936,23.332 C63.882,23.566 63.792,23.62 63.558,23.566 C63.306,23.494 63.054,23.458 62.802,23.458 C62.118,23.458 61.29,23.728 60.732,24.502 L60.732,30.676 C60.732,30.91 60.642,31 60.408,31 Z M72.36,26.572 L72.36,26.878 C72.36,27.058 72.27,27.148 72.09,27.148 L66.204,27.148 C66.312,28.732 67.068,29.992 68.904,29.992 C69.642,29.992 70.398,29.794 70.974,29.38 C71.172,29.236 71.28,29.254 71.424,29.452 L71.712,29.884 C71.82,30.064 71.802,30.208 71.622,30.352 C70.902,30.928 69.93,31.18 68.886,31.18 C65.934,31.18 64.764,29.02 64.764,26.698 C64.764,24.304 66.006,22.18 68.616,22.18 C71.37,22.18 72.36,24.538 72.36,26.572 Z M70.974,26.104 C70.848,24.574 70.128,23.296 68.598,23.296 C67.104,23.296 66.348,24.484 66.204,26.104 L70.974,26.104 Z M80.514,31 L79.848,31 C79.614,31 79.524,30.91 79.524,30.676 L79.524,29.902 C79.056,30.514 78.282,31.18 76.842,31.18 C74.97,31.18 73.962,30.064 73.962,28.57 C73.962,27.058 75.024,25.906 77.4,25.906 C78.246,25.906 78.966,26.05 79.434,26.248 L79.434,25.528 C79.434,24.466 79.11,23.368 77.4,23.368 C76.608,23.368 75.762,23.602 75.15,24.088 C74.952,24.232 74.844,24.214 74.7,24.016 L74.412,23.602 C74.304,23.422 74.322,23.26 74.484,23.134 C75.222,22.522 76.32,22.18 77.526,22.18 C79.866,22.18 80.838,23.458 80.838,25.312 L80.838,30.676 C80.838,30.91 80.748,31 80.514,31 Z M77.076,30.046 C77.976,30.046 78.822,29.686 79.434,28.804 L79.434,27.274 C78.966,27.058 78.12,26.986 77.58,26.986 C75.96,26.986 75.384,27.634 75.384,28.534 C75.384,29.254 75.744,30.046 77.076,30.046 Z M84.672,31 L83.916,31 C83.682,31 83.592,30.91 83.592,30.676 L83.592,22.684 C83.592,22.45 83.682,22.36 83.916,22.36 L84.582,22.36 C84.816,22.36 84.906,22.45 84.906,22.684 L84.906,23.404 C85.374,22.792 86.148,22.18 87.462,22.18 C88.686,22.18 89.478,22.72 89.91,23.548 C90.522,22.81 91.458,22.18 92.808,22.18 C94.932,22.18 95.724,23.692 95.724,25.456 L95.724,30.676 C95.724,30.91 95.634,31 95.4,31 L94.644,31 C94.41,31 94.32,30.91 94.32,30.676 L94.32,25.582 C94.32,24.574 94.014,23.35 92.538,23.35 C91.836,23.35 90.954,23.638 90.36,24.502 L90.36,30.676 C90.36,30.91 90.27,31 90.036,31 L89.28,31 C89.046,31 88.956,30.91 88.956,30.676 L88.956,25.582 C88.956,24.574 88.632,23.35 87.174,23.35 C86.454,23.35 85.59,23.638 84.996,24.502 L84.996,30.676 C84.996,30.91 84.906,31 84.672,31 Z" id="IntelliStream"></path>
            </g>
        </g>
    </g>
</svg>