<?xml version="1.0" encoding="UTF-8"?>
<svg width="16px" height="16px" viewBox="0 0 16 16" version="1.1" xmlns="http://www.w3.org/2000/svg" xmlns:xlink="http://www.w3.org/1999/xlink">
    <!-- Generator: Sketch 48.1 (47250) - http://www.bohemiancoding.com/sketch -->
    <title></title>
    <desc>Created with Sketch.</desc>
    <defs></defs>
    <g id="Page-1" stroke="none" stroke-width="1" fill="none" fill-rule="evenodd">
        <path d="M8.27499118,0.455218857 C9.67455175,0.455218857 10.9652755,0.80008148 12.147201,1.48981707 C13.3291266,2.17955266 14.2649431,3.1153692 14.9546787,4.29729475 C15.6444143,5.4792203 15.9892769,6.769944 15.9892769,8.16950457 C15.9892769,9.56906514 15.6444143,10.8597888 14.9546787,12.0417144 C14.2649431,13.2236399 13.3291266,14.1594565 12.147201,14.8491921 C10.9652755,15.5389277 9.67455175,15.8837903 8.27499118,15.8837903 C6.87543061,15.8837903 5.58470691,15.5389277 4.40278136,14.8491921 C3.22085581,14.1594565 2.28503927,13.2236399 1.59530368,12.0417144 C0.90556809,10.8597888 0.560705467,9.56906514 0.560705467,8.16950457 C0.560705467,6.769944 0.90556809,5.4792203 1.59530368,4.29729475 C2.28503927,3.1153692 3.22085581,2.17955266 4.40278136,1.48981707 C5.58470691,0.80008148 6.87543061,0.455218857 8.27499118,0.455218857 Z M10.7998568,5.87864931 C10.7986321,5.87889785 10.797412,5.87912342 10.7961965,5.879326 C10.7973882,5.879326 10.798593,5.87919347 10.7998112,5.87892842 L10.7998568,5.87864931 Z M10.7998112,5.87892842 C10.8122838,5.87621445 10.8261458,5.85960604 10.8413974,5.82910279 C10.8581386,5.79562048 10.8748795,5.75879049 10.8916206,5.71861171 C10.9083618,5.67843294 10.9200804,5.65499568 10.9267769,5.64829921 C10.9669557,5.60142398 11.0406156,5.55120127 11.147759,5.49762957 C11.2415095,5.4574508 11.4156149,5.41727263 11.6700805,5.37709386 C11.8975126,5.32358042 12.0681459,5.36027215 12.1819856,5.48717013 C12.1695981,5.4733278 12.2015339,5.42993689 12.2777814,5.35700457 C12.3547907,5.28334349 12.4033393,5.24316532 12.4234287,5.23646886 C12.4435181,5.22307593 12.4937408,5.20800912 12.5740983,5.19126796 C12.6544559,5.17452681 12.7046786,5.14941545 12.724768,5.11593314 L12.7448573,4.894951 C12.6644997,4.90164746 12.6059065,4.8782102 12.569076,4.8246385 C12.5324264,4.77132998 12.5106965,4.70144544 12.5038856,4.61498279 C12.4986298,4.63377257 12.4788348,4.65874134 12.443518,4.69405814 C12.443518,4.64718291 12.4284512,4.62039746 12.3983171,4.613701 C12.368183,4.60700454 12.3296789,4.61035272 12.2828037,4.62374564 C12.2359284,4.63713857 12.2057948,4.64048675 12.1924019,4.63379029 C12.1254373,4.6137009 12.0752146,4.58858954 12.0417323,4.55845546 C12.0082499,4.52832139 11.9814645,4.4730764 11.9613751,4.39271886 C11.9412857,4.31236131 11.927893,4.2621386 11.9211965,4.24204921 C11.9078036,4.2085669 11.8759959,4.17173692 11.8257724,4.13155814 C11.775549,4.09137937 11.7437412,4.05789756 11.7303483,4.03111171 C11.7236519,4.01771879 11.7152814,3.9993038 11.7052367,3.97586618 C11.695192,3.95242856 11.6851475,3.93066539 11.6751028,3.910576 C11.6650581,3.89048661 11.6516654,3.87207162 11.6349242,3.85533046 C11.6181831,3.83858931 11.5997681,3.83021886 11.5796787,3.83021886 C11.5595893,3.83021886 11.536152,3.84695976 11.5093662,3.88044207 C11.4825803,3.91392438 11.457469,3.94740619 11.4340314,3.9808885 C11.4105937,4.01437081 11.3955269,4.03111171 11.3888305,4.03111171 C11.3687411,4.01771879 11.348652,4.01269652 11.3285626,4.01604475 C11.3084732,4.01939298 11.2934064,4.02274116 11.2833617,4.02608939 C11.273317,4.02943762 11.2582502,4.03948217 11.2381608,4.05622332 C11.2180714,4.07296448 11.2013305,4.08468311 11.1879376,4.09137957 C11.1678482,4.1047725 11.1393887,4.11481704 11.1025581,4.1215135 C11.0662892,4.12810785 11.038138,4.1347021 11.0181035,4.14129645 C11.1175557,4.10744627 11.1132972,4.07092288 11.007134,4.03111171 C10.9402058,4.0043404 10.8866567,3.99429223 10.8464852,4.0009669 C10.9075834,3.97273647 10.9316179,3.93304635 10.9217546,3.88044207 C10.9117099,3.82687038 10.8832503,3.77999584 10.8363751,3.73981707 L10.8865983,3.73981707 C10.8799019,3.71303122 10.8514423,3.68457169 10.8012189,3.65443761 C10.7509954,3.62430353 10.6924022,3.59584399 10.6254376,3.56905814 C10.558473,3.54227229 10.5149466,3.52218321 10.4948573,3.50879029 C10.4412856,3.47530798 10.3274474,3.44350026 10.1533394,3.41336618 C9.97923138,3.3832321 9.86874142,3.38155801 9.82186618,3.40834386 C9.78838387,3.44852263 9.77331706,3.48367853 9.77666529,3.51381261 C9.78001352,3.54394669 9.79340624,3.59082122 9.81684386,3.65443761 C9.84028148,3.718054 9.85200011,3.75990626 9.85200011,3.77999564 C9.85869657,3.82017442 9.84028158,3.86370077 9.79675457,3.910576 C9.75322757,3.95745123 9.7314644,3.9976294 9.7314644,4.03111171 C9.7314644,4.07798695 9.77833893,4.12988375 9.8720894,4.18680368 C9.96583986,4.24372361 9.99932167,4.31570949 9.97253582,4.4027635 C9.95244644,4.4563352 9.89887555,4.50990609 9.81182154,4.56347779 C9.72476753,4.61704948 9.67119664,4.65722765 9.65110725,4.6840135 C9.61762494,4.7375852 9.61260267,4.79952654 9.63604029,4.86983939 C9.65947791,4.94015224 9.6946338,4.99539723 9.74150904,5.035576 C9.75490196,5.04896892 9.75992423,5.06236165 9.756576,5.07575457 C9.75322777,5.0891475 9.74150914,5.10421431 9.72141975,5.12095546 C9.70133037,5.13769662 9.68291537,5.15108934 9.66617422,5.16113404 C9.64943306,5.17117873 9.62766989,5.18289736 9.60088404,5.19629029 L9.57075011,5.21637957 C9.49708903,5.24986188 9.42845132,5.2297728 9.36483493,5.15611171 C9.30121854,5.08245063 9.2560181,4.99539793 9.22923225,4.894951 C9.18235702,4.72753945 9.12878613,4.62709402 9.06851797,4.59361171 C8.91449934,4.54004002 8.8174021,4.5433882 8.77722332,4.60365636 C8.74374101,4.51660235 8.6064656,4.42954965 8.36539297,4.34249564 C8.19802926,4.28224471 8.00389791,4.26884242 7.78299312,4.30228838 C7.82297978,4.29479808 7.8226546,4.2446329 7.78280368,4.15164743 C7.73592845,4.0512005 7.67231301,4.01102233 7.59195547,4.03111171 C7.61204485,3.99093294 7.62543758,3.93233978 7.63213404,3.85533046 C7.6388305,3.77832115 7.64217868,3.73312071 7.64217868,3.71972779 C7.66226807,3.63267378 7.70244624,3.55566562 7.7627144,3.488701 C7.76941086,3.48200454 7.79284812,3.453545 7.8330269,3.40332154 C7.87320567,3.35309807 7.90501339,3.30789763 7.928451,3.26771886 C7.95133927,3.22848183 7.95347228,3.20840377 7.93485008,3.20748411 C8.16827113,3.23414396 8.33538506,3.19728033 8.43570547,3.09695993 C8.46918778,3.06347762 8.50769186,3.00655854 8.55121886,2.926201 C8.59474586,2.84584346 8.62990176,2.78892438 8.65668761,2.75544207 C8.71695577,2.7152633 8.7638303,2.6968483 8.79731261,2.70019654 C8.83079492,2.70354477 8.87934354,2.72195976 8.94295993,2.75544207 C9.00657632,2.78892438 9.05512494,2.80566529 9.08860725,2.80566529 C9.18235772,2.81236175 9.23425452,2.77553176 9.24429922,2.69517421 C9.25434391,2.61481667 9.22923255,2.54785305 9.1689644,2.49428136 C9.24932194,2.50097782 9.25936648,2.44405875 9.19909832,2.32352243 C9.17231248,2.27664719 9.14552703,2.24651357 9.11874118,2.23312064 C9.03838364,2.20633479 8.94798275,2.2230757 8.84753582,2.28334386 C8.79423375,2.3099949 8.80059461,2.33664554 8.86661862,2.36329657 C8.8584305,2.35978674 8.82691933,2.39513907 8.772201,2.46916975 C8.71528108,2.54617906 8.66003609,2.60477223 8.6064644,2.644951 C8.5528927,2.68512977 8.49932181,2.66838887 8.44575011,2.59472779 C8.43905365,2.58803132 8.42063865,2.54283088 8.39050457,2.45912511 C8.36037049,2.37541933 8.32856278,2.33021889 8.29508047,2.32352243 C8.24153984,2.32352243 8.18800002,2.3736869 8.13445939,2.47401735 C8.15315178,2.41886718 8.11598828,2.36957902 8.02387511,2.32352243 C7.93012464,2.27664719 7.8497683,2.24986175 7.78280368,2.24316529 C7.91003646,2.16280774 7.88325101,2.07240686 7.70244654,1.97195993 C7.6555713,1.94517408 7.5869336,1.92843318 7.49653136,1.92173671 C7.40612912,1.91504025 7.3408396,1.92843298 7.30066082,1.96191529 C7.26717851,2.00879052 7.24876352,2.0472946 7.24541529,2.07742868 C7.24206706,2.10756276 7.25880796,2.1343482 7.2956385,2.15778582 C7.33246904,2.18122344 7.36762494,2.19963843 7.40110725,2.21303136 C7.43458956,2.22642428 7.47309364,2.239817 7.51662065,2.25320993 C7.56014765,2.26660285 7.58860719,2.2766474 7.60200011,2.28334386 C7.69575058,2.35030848 7.72253603,2.39718301 7.68235725,2.42396886 C7.66896433,2.43066532 7.64050479,2.44238395 7.59697779,2.45912511 C7.55345079,2.47586626 7.51494671,2.49093308 7.4814644,2.504326 C7.44798209,2.51771892 7.427893,2.53111165 7.42119654,2.54450457 C7.40110715,2.57129042 7.40110715,2.61816495 7.42119654,2.68512957 C7.44128592,2.75209419 7.43458956,2.79896872 7.40110725,2.82575457 C7.36762494,2.79227226 7.33749132,2.7336791 7.31070547,2.64997332 C7.28552721,2.57129128 7.26330766,2.51775631 7.24404623,2.48936703 C7.28186641,2.54573037 7.19681507,2.56396127 6.9892769,2.54450457 L6.88883047,2.53445993 C6.86204462,2.53445993 6.80847373,2.54115629 6.72811618,2.55454921 C6.64775864,2.56794214 6.57912093,2.57129032 6.522201,2.56459386 C6.46528108,2.5578974 6.42008063,2.53111195 6.38659832,2.48423671 C6.35981248,2.43066502 6.35981248,2.3637014 6.38659832,2.28334386 C6.39326172,2.25669027 6.40655541,2.24992827 6.42647979,2.26305764 C6.39542268,2.23920826 6.36027805,2.20868039 6.31628582,2.16783046 C6.26941059,2.12430346 6.23592878,2.09584392 6.2158394,2.082451 C5.90780214,2.18289793 5.59307315,2.32017334 5.27164297,2.49428136 C5.31182174,2.50097782 5.35199991,2.49762964 5.39217868,2.48423671 C5.42566099,2.47084379 5.46918734,2.44908061 5.52275904,2.41894654 C5.57633073,2.38881246 5.60981254,2.37039746 5.62320547,2.363701 C5.85088518,2.26995053 5.99150877,2.24651327 6.04508047,2.2933885 L6.09530368,2.24316529 C6.18905415,2.35030868 6.25601777,2.4340132 6.29619654,2.49428136 C6.2493213,2.46749551 6.14887588,2.46414733 5.99485725,2.48423671 C5.86092801,2.52441549 5.78726803,2.56459366 5.77387511,2.60477243 C5.82075034,2.68512997 5.83749125,2.74539723 5.82409832,2.785576 C5.79731248,2.76548661 5.7588084,2.73200481 5.70858493,2.68512957 C5.65836147,2.63825434 5.60981284,2.60142435 5.56293761,2.5746385 C5.51606238,2.54785265 5.46583966,2.53111175 5.41226797,2.52441529 C5.30512457,2.52441529 5.2314646,2.52776347 5.19128582,2.53445993 C4.21360236,3.07017689 3.42677988,3.81347303 2.83079475,4.76437064 C2.87766999,4.81124588 2.91784816,4.83803132 2.95133047,4.84472779 C2.97811632,4.85142425 2.99485722,4.88155788 3.00155368,4.93512957 C3.00825014,4.98870127 3.0166206,5.02553126 3.02666529,5.04562064 C3.03670998,5.06571003 3.07521406,5.05566549 3.14217868,5.01548671 C3.20244684,5.06905841 3.21249138,5.13267385 3.17231261,5.20633493 C3.17900907,5.19963847 3.32632903,5.29003935 3.6142769,5.47754029 C3.74150967,5.59138014 3.81182147,5.66169194 3.8252144,5.68847779 C3.84530378,5.76213887 3.81182197,5.82240612 3.72476797,5.86928136 C3.7180715,5.85588843 3.68793788,5.82575481 3.63436618,5.77887957 C3.58079448,5.73200434 3.55066086,5.71861161 3.5439644,5.738701 C3.52387501,5.77218331 3.5255491,5.83412466 3.54898672,5.92452689 C3.57242433,6.01492913 3.60758023,6.05678139 3.65445547,6.05008493 C3.60758023,6.05008493 3.57577251,6.10365582 3.55903136,6.21079921 C3.5422902,6.31794261 3.53391975,6.43680303 3.53391975,6.56738404 C3.53391975,6.69796505 3.53057157,6.77664729 3.52387511,6.80343314 L3.5439644,6.81347779 C3.52387501,6.89383533 3.54229,7.00934757 3.59920993,7.16001796 C3.65612986,7.31068836 3.72811575,7.37597789 3.81516975,7.3558885 C3.72811575,7.37597789 3.79507936,7.51994966 4.01606261,7.78780814 C4.05624138,7.84137984 4.08302683,7.87151347 4.09641975,7.87820993 C4.11650914,7.89160285 4.15668731,7.91671421 4.21695547,7.95354475 C4.27722363,7.99037529 4.32744634,8.0238571 4.36762511,8.05399118 C4.40780388,8.08412526 4.44128569,8.11928116 4.46807154,8.15945993 C4.49485739,8.19294224 4.52833919,8.26827631 4.56851797,8.38546439 C4.60869674,8.50265248 4.65557127,8.58133473 4.70914297,8.6215135 C4.69575004,8.66169227 4.72755776,8.72865589 4.80456707,8.82240636 C4.88157639,8.91615683 4.91673229,8.99316498 4.91003582,9.05343314 C4.90333936,9.05343314 4.89496891,9.05678132 4.88492422,9.06347779 C4.87487952,9.07017425 4.86650907,9.07352243 4.85981261,9.07352243 C4.879902,9.12039766 4.9317988,9.16727219 5.01550457,9.21414743 C5.09921035,9.26102266 5.15110715,9.30454901 5.17119654,9.34472779 C5.177893,9.36481717 5.18458936,9.39829898 5.19128582,9.44517421 C5.19798229,9.49204945 5.20802683,9.52887944 5.22141975,9.55566529 C5.23481268,9.58245113 5.26159812,9.5891475 5.3017769,9.57575457 C5.31516982,9.44182533 5.23481348,9.23423812 5.06070547,8.95298671 C4.96025854,8.78557516 4.90333946,8.68847792 4.88994654,8.66169207 C4.86985715,8.62820976 4.85144216,8.57631296 4.834701,8.50600011 C4.81795985,8.43568726 4.80289303,8.38713863 4.78950011,8.36035279 C4.80289303,8.36035279 4.82298212,8.36537506 4.84976797,8.37541975 C4.87655382,8.38546444 4.90501335,8.39718308 4.93514743,8.410576 C4.96528151,8.42396892 4.99039287,8.43736165 5.01048225,8.45075457 C5.03057164,8.4641475 5.037268,8.47419204 5.03057154,8.4808885 C5.01048215,8.52776373 5.01717851,8.5863569 5.05066082,8.65666975 C5.08414313,8.7269826 5.1243213,8.78892395 5.17119654,8.84249564 C5.21807177,8.89606734 5.27499085,8.95968277 5.34195547,9.03334386 C5.40892009,9.10700494 5.44909826,9.15053129 5.46249118,9.16392421 C5.50266995,9.20410299 5.54954448,9.26939251 5.60311618,9.35979475 C5.65668788,9.45019699 5.65668788,9.49539743 5.60311618,9.49539743 C5.66338434,9.49539743 5.73034796,9.53055333 5.80400904,9.60086618 C5.87767012,9.67117903 5.93458919,9.73646856 5.97476797,9.79673671 C6.00825028,9.85030841 6.03503572,9.93736111 6.05512511,10.0578974 C6.0752145,10.1784337 6.0919554,10.2587901 6.10534832,10.2989689 C6.11874125,10.3458441 6.14720079,10.3910445 6.19072779,10.4345715 C6.23425479,10.4780985 6.27610705,10.5099063 6.31628582,10.5299956 L6.47700011,10.6103528 C6.54396473,10.6438351 6.58749108,10.6672724 6.60758047,10.6806653 C6.64106278,10.6940582 6.70300412,10.7292141 6.79340636,10.786134 C6.8838086,10.843054 6.95579448,10.881558 7.00936618,10.9016474 C7.0763308,10.9284333 7.12990169,10.941826 7.17008047,10.941826 C7.21025924,10.941826 7.25880786,10.9334555 7.31572779,10.9167144 C7.37264772,10.8999732 7.41784816,10.8882546 7.45133047,10.8815581 C7.5517774,10.8681652 7.64887464,10.9183879 7.74262511,11.0322278 C7.83637558,11.1460676 7.90668738,11.2163794 7.95356261,11.2431653 C8.19451261,11.3703333 8.37859782,11.4071906 8.50582376,11.353738 C8.49271998,11.3616425 8.49472507,11.3865716 8.51104029,11.4289912 C8.52778144,11.4725182 8.55456689,11.524415 8.59139743,11.5846831 C8.62822797,11.6449513 8.6583616,11.6934999 8.68179922,11.7303305 C8.70523683,11.767161 8.72365183,11.7956205 8.73704475,11.8157099 C8.77052706,11.8558887 8.83079432,11.9061114 8.91784832,11.9663796 C9.00490233,12.0266477 9.06516959,12.0768704 9.0986519,12.1170492 C9.13883067,12.0902634 9.16226793,12.0601297 9.1689644,12.0266474 C9.14887501,12.0802191 9.17231228,12.1471827 9.2392769,12.2275403 C9.30624152,12.3078978 9.36650877,12.3413796 9.42008047,12.3279867 C9.51383094,12.3078973 9.56070547,12.2007555 9.56070547,12.0065581 C9.35311514,12.1070051 9.18905428,12.0467378 9.06851797,11.8257546 C9.06851797,11.8190581 9.06014751,11.8006431 9.04340636,11.770509 C9.0266652,11.740375 9.01327248,11.7119154 9.00322779,11.6851296 C8.9931831,11.6583437 8.98481264,11.6298842 8.97811618,11.5997501 C8.97141972,11.569616 8.97141972,11.5445047 8.97811618,11.5244153 C8.98481264,11.5043259 9.00155355,11.4942814 9.0283394,11.4942814 C9.08860755,11.4942814 9.12208936,11.4825627 9.12878582,11.4591251 C9.13548229,11.4356875 9.12878592,11.3938352 9.10869654,11.3335671 C9.08860715,11.2732989 9.07521443,11.2297726 9.06851797,11.2029867 C9.0618215,11.149415 9.02499152,11.0824514 8.9580269,11.0020939 C8.89106228,10.9217363 8.85088411,10.8715136 8.83749118,10.8514242 C8.80400887,10.9116924 8.75043798,10.9384778 8.6767769,10.9317814 C8.6031238,10.9250856 8.54955654,10.8949578 8.5160735,10.841397 C8.51569158,10.8494277 8.51067591,10.8675843 8.50099565,10.8966251 C8.49095095,10.9267592 8.48592868,10.9485224 8.48592868,10.9619153 C8.39887467,10.9619153 8.34865196,10.9585671 8.33525904,10.9518706 C8.3419555,10.9317813 8.35032595,10.8731881 8.36037065,10.7760894 C8.37041534,10.6789907 8.38213397,10.6036566 8.3955269,10.5500849 C8.40222336,10.5232991 8.42063835,10.4831209 8.45077243,10.4295492 C8.48090651,10.3759775 8.50601787,10.3274289 8.52610725,10.2839019 C8.54619664,10.2403749 8.55958936,10.1985226 8.56628582,10.1583439 C8.57298229,10.1181651 8.55791547,10.0863574 8.52108493,10.0629198 C8.48425439,10.0394821 8.42566123,10.0311117 8.34530368,10.0378081 C8.2180709,10.0445046 8.1310182,10.1114682 8.08414297,10.238701 C8.0774465,10.2587904 8.06740196,10.2939463 8.05400904,10.3441698 C8.04061611,10.3943932 8.02387521,10.4328973 8.00378582,10.4596831 C7.98369644,10.486469 7.95356281,10.5099063 7.91338404,10.5299956 C7.8665088,10.550085 7.78615246,10.5567814 7.67231261,10.5500849 C7.55847275,10.5433885 7.47811642,10.5266476 7.43124118,10.4998617 C7.34418717,10.44629 7.26885311,10.3491928 7.20523672,10.2085671 C7.14162033,10.0679414 7.10981261,9.94405868 7.10981261,9.83691529 C7.10981261,9.76995067 7.11818306,9.68122387 7.13492422,9.57073225 C7.15166537,9.46024063 7.16170991,9.37653611 7.16505815,9.31961618 C7.16840638,9.26269625 7.14999138,9.18066582 7.10981261,9.07352243 C7.129902,9.0601295 7.16003562,9.02832179 7.2002144,8.97809832 C7.24039317,8.92787486 7.27387498,8.89271896 7.30066082,8.87262957 C7.31405375,8.86593311 7.32912056,8.86091084 7.34586172,8.85756261 C7.36260287,8.85421438 7.37766969,8.85421438 7.39106261,8.85756261 C7.40445553,8.86091084 7.41784826,8.85588857 7.43124118,8.84249564 C7.44463411,8.82910272 7.45467865,8.80901363 7.46137511,8.78222779 C7.45467865,8.77553132 7.44128592,8.76548678 7.42119654,8.75209386 C7.40110715,8.73200447 7.38771443,8.72195993 7.38101797,8.72195993 C7.4278932,8.74204931 7.52331635,8.73702704 7.66729029,8.70689296 C7.81126422,8.67675889 7.90333919,8.68178116 7.94351797,8.72195993 C8.0439649,8.79562101 8.11762488,8.78892465 8.16450011,8.70187064 C8.16450011,8.69517418 8.15612966,8.66336646 8.1393885,8.60644654 C8.12264735,8.54952661 8.12097326,8.50432617 8.13436618,8.47084386 C8.16784849,8.65164833 8.26494573,8.68178196 8.42566082,8.56124564 C8.44575021,8.58133503 8.49764701,8.59807593 8.58135279,8.61146886 C8.66505856,8.62486178 8.72365173,8.64160269 8.75713404,8.66169207 C8.77722342,8.675085 8.80066069,8.69349999 8.82744654,8.71693761 C8.85423239,8.74037522 8.87264738,8.75544204 8.88269207,8.7621385 C8.89273677,8.76883496 8.90947767,8.76716087 8.93291529,8.75711618 C8.95635291,8.74707149 8.98481244,8.72530831 9.01829475,8.691826 C9.08525937,8.78557647 9.12543754,8.86593281 9.13883047,8.93289743 C9.21249155,9.20075591 9.27610698,9.34807587 9.32967868,9.37486171 C9.37655392,9.3949511 9.4133839,9.40164746 9.44016975,9.394951 C9.4669556,9.38825454 9.48202241,9.35644682 9.48537065,9.29952689 C9.48871888,9.24260697 9.48871888,9.19573243 9.48537065,9.15890189 C9.48202241,9.12207135 9.47700014,9.08021909 9.47030368,9.03334386 L9.46025904,8.95298671 L9.46025904,8.77218314 L9.4502144,8.691826 C9.34976746,8.67173661 9.28782612,8.63155844 9.2643885,8.57129029 C9.24095089,8.51102213 9.24597316,8.44908078 9.27945547,8.38546439 C9.31293778,8.321848 9.36316049,8.25990666 9.43012511,8.1996385 C9.43682157,8.19294204 9.46360702,8.18122341 9.51048225,8.16448225 C9.55735749,8.14774109 9.60925429,8.12597792 9.66617422,8.09919207 C9.72309414,8.07240622 9.7649464,8.04562078 9.79173225,8.01883493 C9.93235796,7.89160215 9.98258067,7.77441582 9.9424019,7.66727243 C9.98927713,7.66727243 10.0261071,7.6371388 10.052893,7.57687064 C10.0461965,7.57687064 10.0294556,7.5668261 10.0026698,7.54673671 C9.9758839,7.52664733 9.95077255,7.50990642 9.92733493,7.4965135 C9.90389731,7.48312058 9.8888305,7.47642421 9.88213404,7.47642421 C9.9424022,7.4429419 9.94909856,7.38937101 9.90222332,7.31570993 C9.93570563,7.29562054 9.96081699,7.25879055 9.97755815,7.20521886 C9.9942993,7.15164716 10.0194107,7.11816535 10.052893,7.10477243 C10.1131611,7.18512997 10.1834729,7.19182633 10.2638305,7.12486171 C10.3174022,7.07129002 10.3207503,7.01771913 10.2738751,6.96414743 C10.3073574,6.91727219 10.3759951,6.8821163 10.4797903,6.85867868 C10.5835855,6.83524106 10.6455268,6.80343334 10.6656162,6.76325457 C10.7124914,6.7766475 10.7392769,6.76995113 10.7459733,6.74316529 C10.7526698,6.71637944 10.756018,6.67620127 10.756018,6.62262957 C10.756018,6.56905788 10.7660625,6.52887971 10.7861519,6.50209386 C10.8129377,6.46861155 10.8631605,6.43847792 10.9368215,6.41169207 C11.0104826,6.38490622 11.054009,6.36816532 11.0674019,6.36146886 L11.2381608,6.25097779 C11.2582502,6.22419194 11.2582502,6.21079921 11.2381608,6.21079921 C11.3586971,6.22419214 11.4624907,6.18736215 11.5495448,6.10030814 C11.6165094,6.02664706 11.5964203,5.95968344 11.4892769,5.89941529 C11.5093663,5.85923651 11.4993217,5.8274288 11.459143,5.80399118 C11.4189642,5.78055356 11.3687415,5.76213857 11.3084733,5.74874564 C11.3285627,5.74204918 11.3670668,5.74037509 11.4239867,5.74372332 C11.4809066,5.74707155 11.5160625,5.74204928 11.5294555,5.72865636 C11.6299024,5.66169174 11.6064651,5.60812084 11.459143,5.56794207 C11.3453031,5.53445976 11.2013313,5.57463793 11.0272233,5.68847779 C11.0138304,5.69517425 10.9820227,5.72698197 10.9317992,5.78390189 C10.8830951,5.83909987 10.8391147,5.87068205 10.7998568,5.87864931 L10.7998112,5.87892842 Z M11.0199096,4.14068294 C11.019008,4.14098983 11.0180977,4.14129645 11.0171787,4.14160279 C11.017485,4.14150067 11.0177933,4.14139856 11.0181035,4.14129645 L11.0199096,4.14068294 Z M10.8496504,3.99951356 C10.848585,4.000006 10.8475081,4.00049408 10.8464198,4.00097779 C10.8464416,4.00097415 10.8464634,4.00097052 10.8464852,4.0009669 L10.8496504,3.99951356 Z M7.78377923,4.30214445 C7.78345672,4.30220489 7.78313154,4.30226243 7.78280368,4.30231707 C7.78286683,4.3023075 7.78292998,4.30229794 7.78299312,4.30228838 L7.78377923,4.30214445 Z M7.93485008,3.20748411 C7.93440312,3.20746204 7.9339442,3.207451 7.93347332,3.207451 C7.93376855,3.20748474 7.93406367,3.20751838 7.93435868,3.20755192 L7.93485008,3.20748411 Z M8.86673537,2.36311181 C8.86706952,2.36324559 8.8673661,2.36344199 8.86762511,2.363701 C8.86728809,2.36356619 8.86695259,2.36343138 8.86661862,2.36329657 L8.86673537,2.36311181 Z M8.13536665,2.47138835 C8.13505052,2.4723219 8.13471703,2.47325647 8.13436618,2.47419207 C8.13439725,2.47413381 8.13442832,2.47407557 8.13445939,2.47401735 L8.13536665,2.47138835 Z M6.42647979,2.26305764 C6.42657866,2.2631228 6.4266777,2.26318844 6.4267769,2.26325457 C6.42512946,2.262019 6.42344404,2.2607391 6.42172062,2.25941487 L6.42647979,2.26305764 Z M8.50582376,11.353738 C8.50588851,11.3537108 8.50595325,11.3536836 8.50601797,11.3536564 C8.50567722,11.3538267 8.50534622,11.354009 8.50502498,11.3542032 L8.50582376,11.353738 Z M11.4963475,12.0141988 C11.4973379,12.0149982 11.4983292,12.0157995 11.4993215,12.0166028 C11.4993174,12.0165987 11.4993133,12.0165945 11.4993092,12.0165904 L11.4963475,12.0141988 Z M11.4963475,12.0141988 C11.3569957,11.9017254 11.2374525,11.8288667 11.1377144,11.7956206 C11.1042321,11.7889242 11.0674021,11.7705092 11.0272233,11.7403751 C10.9870446,11.710241 10.9518887,11.6868038 10.9217546,11.6700626 C10.8916205,11.6533215 10.8581387,11.6482992 10.8213081,11.6549956 C10.7844776,11.6616921 10.7459735,11.6851294 10.7057948,11.7253081 C10.6723124,11.7587905 10.6522234,11.8090132 10.6455269,11.8759778 C10.6388304,11.9429424 10.6321341,11.9864688 10.6254376,12.0065581 C10.5785624,11.9730758 10.5785624,11.9144827 10.6254376,11.8307769 C10.6723128,11.7470711 10.6790092,11.6851298 10.6455269,11.644951 C10.6254375,11.6047722 10.5902816,11.5897054 10.5400581,11.5997501 C10.4898347,11.6097948 10.4496565,11.6248616 10.4195224,11.644951 C10.3893884,11.6650404 10.3508843,11.6934999 10.304009,11.7303305 C10.2571338,11.767161 10.2270002,11.7889242 10.2136073,11.7956206 C10.2002143,11.8023171 10.1717548,11.8207321 10.1282278,11.8508662 C10.0847008,11.8810003 10.0562412,11.9061116 10.0428483,11.926201 C10.0227589,11.9529868 10.0026699,11.993165 9.98258047,12.0467367 C9.96249108,12.1003084 9.94575018,12.1371384 9.93235725,12.1572278 C9.91896433,12.1304419 9.88046025,12.1086788 9.81684386,12.0919376 C9.75713471,12.0762247 9.72544692,12.0590372 9.72177971,12.0403747 C9.73529456,12.1078894 9.74844635,12.2238548 9.76159832,12.3882546 C9.77499125,12.5556661 9.79173215,12.682897 9.81182154,12.769951 C9.85869677,12.9775413 9.8185186,13.138254 9.69128582,13.2520939 C9.51048135,13.4195054 9.41338411,13.5534326 9.39999118,13.6538796 C9.37320533,13.8012017 9.4133835,13.8882544 9.5205269,13.9150403 C9.5205269,13.9619155 9.49374145,14.0305532 9.44016975,14.1209555 C9.38659806,14.2113577 9.36316079,14.2833436 9.36985725,14.3369153 C9.36985725,14.3770941 9.37655361,14.430665 9.38994654,14.4976296 C10.7694177,14.2565569 11.9446292,13.6237508 12.9156162,12.5991921 C12.8955268,12.5791027 12.8536745,12.5640359 12.7900581,12.5539912 C12.7264418,12.5439465 12.6845895,12.5322279 12.6645001,12.5188349 C12.5439638,12.4719597 12.4636075,12.4451742 12.4234287,12.4384778 C12.4301251,12.3916026 12.4217547,12.3480762 12.3983171,12.3078974 C12.3748795,12.2677187 12.348094,12.237585 12.3179599,12.2174956 C12.2878259,12.1974063 12.2459736,12.1706208 12.1924019,12.1371385 C12.1388302,12.1036562 12.1020002,12.0802189 12.0819108,12.066826 C12.0685179,12.0534331 12.0450806,12.033344 12.0115983,12.0065581 C11.978116,11.9797723 11.9546787,11.9613573 11.9412858,11.9513126 C11.9278929,11.9412679 11.9027815,11.9262011 11.865951,11.9061117 C11.8291205,11.8860223 11.8006609,11.879326 11.7805715,11.8860224 C11.7604822,11.8927189 11.7270003,11.8960671 11.6801251,11.8960671 L11.6499912,11.9061117 C11.6299018,11.9128082 11.6114868,11.9211786 11.5947456,11.9312233 C11.5780045,11.941268 11.5595895,11.9513126 11.5395001,11.9613573 C11.5194107,11.9714019 11.506018,11.9814465 11.4993215,11.9914912 C11.4926292,12.0015297 11.4926251,12.009896 11.4993092,12.0165904 L11.4963475,12.0141988 Z M9.72177971,12.0403747 C9.72153974,12.0391535 9.72141975,12.0379259 9.72141975,12.0366921 C9.7216607,12.0378968 9.72190164,12.0391178 9.72214259,12.040355 L9.72177971,12.0403747 Z" id="" fill="#FFFFFF"></path>
    </g>
</svg>