<?xml version="1.0" encoding="UTF-8"?>
<svg width="23px" height="22px" viewBox="0 0 23 22" version="1.1" xmlns="http://www.w3.org/2000/svg" xmlns:xlink="http://www.w3.org/1999/xlink">
    <!-- Generator: Sketch 47.1 (45422) - http://www.bohemiancoding.com/sketch -->
    <title>notification-icon</title>
    <desc>Created with Sketch.</desc>
    <defs></defs>
    <g id="Symbols" stroke="none" stroke-width="1" fill="none" fill-rule="evenodd" stroke-linejoin="round">
        <g id="app-header" transform="translate(-1109.000000, -24.000000)" stroke="#E1EBF0">
            <g id="notification-icon">
                <path d="M1110.16304,40.5 C1111.82304,40.5 1113.16304,39.16 1113.16304,37.5 L1113.16304,34.31 C1113.16304,31.01 1115.21304,28.04 1118.16304,26.95 C1118.19304,25.59 1119.30304,24.5 1120.66304,24.5 C1122.02304,24.5 1123.13304,25.59 1123.16304,26.95 C1126.11304,28.04 1128.16304,31.01 1128.16304,34.31 L1128.16304,37.5 C1128.16304,39.16 1129.50304,40.5 1131.16304,40.5 L1110.16304,40.5 Z M1117.16304,42 L1124.16304,42 C1124.16304,43.93 1122.59304,45.5 1120.66304,45.5 C1118.73304,45.5 1117.16304,43.93 1117.16304,42 Z M1109.66304,40.5 L1131.66304,40.5 L1109.66304,40.5 Z"></path>
            </g>
        </g>
    </g>
</svg>