<?xml version="1.0" encoding="UTF-8"?>
<svg width="18px" height="15px" viewBox="0 0 18 15" version="1.1" xmlns="http://www.w3.org/2000/svg" xmlns:xlink="http://www.w3.org/1999/xlink">
    <!-- Generator: Sketch 48.1 (47250) - http://www.bohemiancoding.com/sketch -->
    <title></title>
    <desc>Created with Sketch.</desc>
    <defs></defs>
    <g id="Page-1" stroke="none" stroke-width="1" fill="none" fill-rule="evenodd">
        <path d="M3.85714316,12.2142857 C3.85714316,12.7500027 3.66964503,13.2053553 3.29464316,13.5803571 C2.91964128,13.955359 2.46428869,14.1428571 1.92857173,14.1428571 C1.39285476,14.1428571 0.937502173,13.955359 0.562500298,13.5803571 C0.187498423,13.2053553 2.98000003e-07,12.7500027 2.98000003e-07,12.2142857 C2.98000003e-07,11.6785688 0.187498423,11.2232162 0.562500298,10.8482143 C0.937502173,10.4732124 1.39285476,10.2857143 1.92857173,10.2857143 C2.46428869,10.2857143 2.91964128,10.4732124 3.29464316,10.8482143 C3.66964503,11.2232162 3.85714316,11.6785688 3.85714316,12.2142857 Z M3.85714316,7.07142857 C3.85714316,7.60714554 3.66964503,8.06249812 3.29464316,8.4375 C2.91964128,8.81250187 2.46428869,9 1.92857173,9 C1.39285476,9 0.937502173,8.81250187 0.562500298,8.4375 C0.187498423,8.06249812 2.98000003e-07,7.60714554 2.98000003e-07,7.07142857 C2.98000003e-07,6.53571161 0.187498423,6.08035902 0.562500298,5.70535714 C0.937502173,5.33035527 1.39285476,5.14285714 1.92857173,5.14285714 C2.46428869,5.14285714 2.91964128,5.33035527 3.29464316,5.70535714 C3.66964503,6.08035902 3.85714316,6.53571161 3.85714316,7.07142857 Z M18.0000003,11.25 L18.0000003,13.1785714 C18.0000003,13.2656254 17.9681926,13.3409595 17.9045762,13.4045759 C17.8409598,13.4681923 17.7656257,13.5 17.6785717,13.5 L5.46428601,13.5 C5.37723201,13.5 5.30189794,13.4681923 5.23828155,13.4045759 C5.17466516,13.3409595 5.14285744,13.2656254 5.14285744,13.1785714 L5.14285744,11.25 C5.14285744,11.162946 5.17466516,11.0876119 5.23828155,11.0239955 C5.30189794,10.9603791 5.37723201,10.9285714 5.46428601,10.9285714 L17.6785717,10.9285714 C17.7656257,10.9285714 17.8409598,10.9603791 17.9045762,11.0239955 C17.9681926,11.0876119 18.0000003,11.162946 18.0000003,11.25 Z M3.85714316,1.92857143 C3.85714316,2.46428839 3.66964503,2.91964098 3.29464316,3.29464286 C2.91964128,3.66964473 2.46428869,3.85714286 1.92857173,3.85714286 C1.39285476,3.85714286 0.937502173,3.66964473 0.562500298,3.29464286 C0.187498423,2.91964098 2.98000003e-07,2.46428839 2.98000003e-07,1.92857143 C2.98000003e-07,1.39285446 0.187498423,0.937501875 0.562500298,0.5625 C0.937502173,0.187498125 1.39285476,0 1.92857173,0 C2.46428869,0 2.91964128,0.187498125 3.29464316,0.5625 C3.66964503,0.937501875 3.85714316,1.39285446 3.85714316,1.92857143 Z M18.0000003,6.10714286 L18.0000003,8.03571429 C18.0000003,8.12276829 17.9681926,8.19810236 17.9045762,8.26171875 C17.8409598,8.32533514 17.7656257,8.35714286 17.6785717,8.35714286 L5.46428601,8.35714286 C5.37723201,8.35714286 5.30189794,8.32533514 5.23828155,8.26171875 C5.17466516,8.19810236 5.14285744,8.12276829 5.14285744,8.03571429 L5.14285744,6.10714286 C5.14285744,6.02008885 5.17466516,5.94475478 5.23828155,5.88113839 C5.30189794,5.817522 5.37723201,5.78571429 5.46428601,5.78571429 L17.6785717,5.78571429 C17.7656257,5.78571429 17.8409598,5.817522 17.9045762,5.88113839 C17.9681926,5.94475478 18.0000003,6.02008885 18.0000003,6.10714286 Z M18.0000003,0.964285714 L18.0000003,2.89285714 C18.0000003,2.97991115 17.9681926,3.05524522 17.9045762,3.11886161 C17.8409598,3.182478 17.7656257,3.21428571 17.6785717,3.21428571 L5.46428601,3.21428571 C5.37723201,3.21428571 5.30189794,3.182478 5.23828155,3.11886161 C5.17466516,3.05524522 5.14285744,2.97991115 5.14285744,2.89285714 L5.14285744,0.964285714 C5.14285744,0.877231708 5.17466516,0.80189764 5.23828155,0.73828125 C5.30189794,0.67466486 5.37723201,0.642857143 5.46428601,0.642857143 L17.6785717,0.642857143 C17.7656257,0.642857143 17.8409598,0.67466486 17.9045762,0.73828125 C17.9681926,0.80189764 18.0000003,0.877231708 18.0000003,0.964285714 Z" id="" fill="#FFFFFF"></path>
    </g>
</svg>