<?xml version="1.0" encoding="UTF-8"?>
<svg width="66px" height="18px" viewBox="0 0 66 18" version="1.1" xmlns="http://www.w3.org/2000/svg" xmlns:xlink="http://www.w3.org/1999/xlink">
    <!-- Generator: Sketch 47.1 (45422) - http://www.bohemiancoding.com/sketch -->
    <title>widget controls</title>
    <desc>Created with Sketch.</desc>
    <defs></defs>
    <g id="dashboard-/-data-table" stroke="none" stroke-width="1" fill="none" fill-rule="evenodd">
        <g id="dashboard-(zoom-02)" transform="translate(-755.000000, -200.000000)" fill="#FFFFFF">
            <g id="widget" transform="translate(0.000000, 170.000000)">
                <g id="widget-controls" transform="translate(752.000000, 30.000000)">
                    <g id="overflow-icon" transform="translate(65.000000, 0.000000)">
                        <path d="M2,4 C0.8954305,4 0,3.1045695 0,2 C0,0.8954305 0.8954305,0 2,0 C3.1045695,0 4,0.8954305 4,2 C4,3.1045695 3.1045695,4 2,4 Z M2,11 C0.8954305,11 0,10.1045695 0,9 C0,7.8954305 0.8954305,7 2,7 C3.1045695,7 4,7.8954305 4,9 C4,10.1045695 3.1045695,11 2,11 Z M2,18 C0.8954305,18 0,17.1045695 0,16 C0,14.8954305 0.8954305,14 2,14 C3.1045695,14 4,14.8954305 4,16 C4,17.1045695 3.1045695,18 2,18 Z" id="Combined-Shape"></path>
                    </g>
                    <g id="move-icon" transform="translate(29.000000, 1.000000)">
                        <path d="M12.25,7.5 L9.25,7.5 L9.25,4.5 L10.25,4.5 L8.25,0.5 L6.25,4.5 L7.25,4.5 L7.25,7.5 L4.25,7.5 L4.25,6.5 L0.25,8.5 L4.25,10.5 L4.25,9.5 L7.25,9.5 L7.25,12.5 L6.25,12.5 L8.25,16.5 L10.25,12.5 L9.25,12.5 L9.25,9.5 L12.25,9.5 L12.25,10.5 L16.25,8.5 L12.25,6.5 L12.25,7.5 Z" id="Combined-Shape"></path>
                    </g>
                    <g id="edit-icon" transform="translate(6.415064, 9.611216) rotate(-330.000000) translate(-6.415064, -9.611216) translate(3.915064, 1.111216)">
                        <path d="M0.984455543,0.00897459622 L4.98445554,0.00897459622 L4.98445554,11.5645302 L0.984455543,11.5645302 L0.984455543,0.00897459622 Z M2.98445554,16.0089746 L0.984455543,12.453419 L4.98445554,12.453419 L2.98445554,16.0089746 Z" id="Combined-Shape"></path>
                    </g>
                </g>
            </g>
        </g>
    </g>
</svg>