<?xml version="1.0" encoding="UTF-8"?>
<svg width="126px" height="18px" viewBox="0 0 126 18" version="1.1" xmlns="http://www.w3.org/2000/svg" xmlns:xlink="http://www.w3.org/1999/xlink">
    <!-- Generator: Sketch 48.1 (47250) - http://www.bohemiancoding.com/sketch -->
    <title>widget-controls-map</title>
    <desc>Created with Sketch.</desc>
    <defs></defs>
    <g id="Page-1" stroke="none" stroke-width="1" fill="none" fill-rule="evenodd">
        <g id="widget-controls-map" transform="translate(-3.000000, 0.000000)" fill="#FFFFFF" fill-rule="nonzero">
            <g id="overflow-icon" transform="translate(125.000000, 0.000000)">
                <path d="M2,4 C0.8954305,4 0,3.1045695 0,2 C0,0.8954305 0.8954305,0 2,0 C3.1045695,0 4,0.8954305 4,2 C4,3.1045695 3.1045695,4 2,4 Z M2,11 C0.8954305,11 0,10.1045695 0,9 C0,7.8954305 0.8954305,7 2,7 C3.1045695,7 4,7.8954305 4,9 C4,10.1045695 3.1045695,11 2,11 Z M2,18 C0.8954305,18 0,17.1045695 0,16 C0,14.8954305 0.8954305,14 2,14 C3.1045695,14 4,14.8954305 4,16 C4,17.1045695 3.1045695,18 2,18 Z" id="Combined-Shape"></path>
            </g>
            <g id="move-icon" transform="translate(89.000000, 1.000000)">
                <polygon id="Combined-Shape" points="12.25 7.5 9.25 7.5 9.25 4.5 10.25 4.5 8.25 0.5 6.25 4.5 7.25 4.5 7.25 7.5 4.25 7.5 4.25 6.5 0.25 8.5 4.25 10.5 4.25 9.5 7.25 9.5 7.25 12.5 6.25 12.5 8.25 16.5 10.25 12.5 9.25 12.5 9.25 9.5 12.25 9.5 12.25 10.5 16.25 8.5 12.25 6.5"></polygon>
            </g>
            <g id="edit-icon" transform="translate(6.415064, 9.611216) rotate(30.000000) translate(-6.415064, -9.611216) translate(3.915064, 1.111216)">
                <path d="M0.984455543,0.00897459622 L4.98445554,0.00897459622 L4.98445554,11.5645302 L0.984455543,11.5645302 L0.984455543,0.00897459622 Z M2.98445554,16.0089746 L0.984455543,12.453419 L4.98445554,12.453419 L2.98445554,16.0089746 Z" id="Combined-Shape"></path>
            </g>
        </g>
    </g>
</svg>